<svg width="41" height="41" viewBox="0 0 41 41" fill="none" xmlns="http://www.w3.org/2000/svg">
<path d="M17.0689 35.2792C14.2171 34.6899 11.5907 33.3047 9.4939 31.284C7.39709 29.2633 5.9157 26.6899 5.22137 23.8619C4.52703 21.0339 4.64816 18.0671 5.57072 15.3051C6.49329 12.5431 8.17953 10.099 10.4341 8.25605C12.6886 6.41304 15.4192 5.24655 18.3095 4.89169C21.1998 4.53684 24.1315 5.00816 26.7649 6.25104C29.3984 7.49392 31.6257 9.4575 33.189 11.9143C34.7523 14.3711 35.5876 17.2205 35.5979 20.1325L31.753 20.1462C31.7452 17.9608 31.1184 15.8223 29.9451 13.9784C28.7719 12.1346 27.1002 10.661 25.1238 9.72819C23.1475 8.79541 20.9472 8.44169 18.7781 8.708C16.6089 8.97432 14.5596 9.84977 12.8676 11.2329C11.1755 12.6161 9.91001 14.4504 9.21762 16.5232C8.52524 18.5961 8.43433 20.8227 8.95543 22.9451C9.47653 25.0675 10.5883 26.9989 12.162 28.5154C13.7356 30.0319 15.7067 31.0715 17.847 31.5137L17.0689 35.2792Z" fill="#7C0606"/>
<path d="M15.0099 32.7953C12.8183 31.8711 10.9057 30.3912 9.46103 28.5017C8.0164 26.6121 7.08975 24.3784 6.77262 22.0211C6.45549 19.6638 6.75886 17.2646 7.65275 15.0604C8.54664 12.8563 10.0001 10.9235 11.8696 9.453C13.7391 7.9825 15.9599 7.02519 18.3126 6.67565C20.6652 6.3261 23.0684 6.59641 25.2847 7.45988C27.5009 8.32335 29.4535 9.75009 30.9496 11.5991C32.4457 13.4482 33.4335 15.6556 33.8154 18.0033L33.5464 18.047C33.1721 15.7462 32.204 13.5828 30.7377 11.7706C29.2715 9.9584 27.3578 8.5601 25.1857 7.71385C23.0136 6.8676 20.6584 6.60267 18.3526 6.94525C16.0468 7.28783 13.8703 8.22605 12.0381 9.66723C10.2059 11.1084 8.7814 13.0027 7.90533 15.1629C7.02926 17.3231 6.73194 19.6745 7.04275 21.9847C7.35356 24.295 8.26173 26.4842 9.67756 28.3361C11.0934 30.188 12.9679 31.6384 15.1158 32.5441L15.0099 32.7953Z" fill="black"/>
<path d="M19.4508 33.5009C19.4494 33.4541 19.4423 33.4104 19.4294 33.3699C19.4171 33.3291 19.3988 33.292 19.3747 33.2588C19.3509 33.2256 19.3212 33.1969 19.2857 33.1726C19.2501 33.1484 19.2089 33.1294 19.162 33.1156C19.0851 33.0929 19.0093 33.0922 18.9346 33.1134C18.86 33.1346 18.7927 33.1784 18.7327 33.2447C18.6728 33.3111 18.6262 33.4005 18.5932 33.5129C18.5601 33.6253 18.5509 33.7257 18.5658 33.8141C18.5806 33.9025 18.6143 33.976 18.6669 34.0347C18.7194 34.0933 18.7858 34.1344 18.8661 34.1581C18.9405 34.18 19.0106 34.1834 19.0766 34.1684C19.1431 34.153 19.2008 34.1209 19.2496 34.0719C19.299 34.0226 19.3354 33.9583 19.3588 33.8788L19.404 33.9031L19.0136 33.7882L19.0546 33.6488L19.549 33.7943L19.508 33.9337C19.4765 34.0407 19.4263 34.1269 19.3574 34.1925C19.2889 34.2582 19.2084 34.3011 19.1157 34.3211C19.0235 34.3408 18.9259 34.3355 18.8228 34.3051C18.7079 34.2713 18.6148 34.2145 18.5437 34.1348C18.473 34.0552 18.428 33.9584 18.4088 33.8444C18.39 33.7305 18.4007 33.6051 18.441 33.4681C18.4713 33.3655 18.5122 33.2772 18.5638 33.2033C18.6159 33.1291 18.6759 33.0705 18.7436 33.0275C18.8114 32.9846 18.8844 32.9579 18.9628 32.9474C19.0412 32.937 19.122 32.944 19.2053 32.9685C19.2737 32.9887 19.3345 33.0178 19.3875 33.0559C19.4411 33.0937 19.4857 33.1383 19.5211 33.1896C19.557 33.2406 19.583 33.2967 19.599 33.3578C19.6151 33.4186 19.6198 33.4822 19.6131 33.5487L19.4508 33.5009Z" fill="#7C0606"/>
<path d="M19.8173 34.5239L20.0312 33.1877L20.4827 33.2599C20.5871 33.2767 20.6699 33.3082 20.7312 33.3546C20.7925 33.4006 20.8343 33.457 20.8566 33.5239C20.8789 33.5908 20.8838 33.6636 20.8712 33.7424C20.8586 33.8211 20.8313 33.8883 20.7894 33.9441C20.7474 33.9998 20.6904 34.0398 20.6183 34.0639C20.5462 34.0876 20.4584 34.0912 20.3549 34.0746L19.9895 34.0161L20.0129 33.87L20.3731 33.9276C20.4444 33.939 20.5035 33.9378 20.5504 33.9239C20.5976 33.91 20.6341 33.8855 20.6598 33.8504C20.686 33.8149 20.7034 33.7704 20.712 33.7169C20.7205 33.6634 20.718 33.615 20.7044 33.5718C20.6908 33.5286 20.6638 33.4926 20.6233 33.4638C20.583 33.4346 20.5267 33.4142 20.4545 33.4026L20.17 33.3571L19.9791 34.5498L19.8173 34.5239ZM20.5423 34.0243L20.775 34.6772L20.5871 34.6471L20.3596 33.9951L20.5423 34.0243Z" fill="#7C0606"/>
<path d="M22.4009 34.064C22.3969 34.2067 22.3676 34.3293 22.3132 34.4317C22.2587 34.5342 22.1858 34.6124 22.0944 34.6662C22.003 34.72 21.8996 34.7453 21.7842 34.742C21.6688 34.7388 21.567 34.7077 21.4788 34.6488C21.3906 34.5899 21.3222 34.5078 21.2736 34.4024C21.225 34.2971 21.2027 34.173 21.2067 34.0304C21.2107 33.8877 21.24 33.7651 21.2944 33.6627C21.3489 33.5602 21.4218 33.4821 21.5132 33.4282C21.6046 33.3744 21.708 33.3491 21.8234 33.3524C21.9388 33.3556 22.0406 33.3867 22.1288 33.4456C22.217 33.5045 22.2854 33.5866 22.334 33.692C22.3826 33.7974 22.4049 33.9214 22.4009 34.064ZM22.2424 34.0596C22.2457 33.9425 22.2289 33.843 22.1919 33.7614C22.1555 33.6797 22.1046 33.6172 22.0392 33.574C21.9744 33.5307 21.901 33.5079 21.8191 33.5056C21.7372 33.5033 21.6624 33.5219 21.5947 33.5614C21.5275 33.601 21.4732 33.6605 21.4317 33.7399C21.3907 33.8194 21.3685 33.9177 21.3652 34.0348C21.3619 34.152 21.3785 34.2514 21.415 34.333C21.4519 34.4147 21.5028 34.4772 21.5677 34.5205C21.633 34.5637 21.7066 34.5865 21.7885 34.5888C21.8704 34.5911 21.945 34.5725 22.0122 34.533C22.0799 34.4935 22.1342 34.434 22.1752 34.3545C22.2167 34.275 22.2391 34.1767 22.2424 34.0596Z" fill="#7C0606"/>
<path d="M23.1364 34.6758L22.6023 33.3785L22.7676 33.358L23.1841 34.4168L23.1972 34.4152L23.3472 33.286L23.5308 33.2631L23.9526 34.3213L23.9657 34.3197L24.1104 33.1911L24.2757 33.1706L24.0754 34.5591L23.9075 34.5799L23.4781 33.5467L23.4677 33.548L23.3043 34.6549L23.1364 34.6758Z" fill="#7C0606"/>
<path d="M24.3902 33.2538L24.352 33.1136L25.3311 32.8464L25.3694 32.9867L24.9588 33.0987L25.2768 34.2639L25.1187 34.3071L24.8007 33.1418L24.3902 33.2538Z" fill="#7C0606"/>
<path d="M26.1496 33.9802L25.6303 32.7307L25.7816 32.6678L26.0128 33.2242L26.6791 32.9473L26.4479 32.3909L26.5992 32.328L27.1185 33.5776L26.9672 33.6405L26.7349 33.0816L26.0686 33.3585L26.3009 33.9174L26.1496 33.9802Z" fill="#7C0606"/>
<path d="M28.1804 31.3632L28.3318 31.2394L29.3989 31.8179L29.4111 31.8079L29.0562 30.6472L29.2076 30.5234L30.0641 31.571L29.9454 31.668L29.2947 30.8721L29.2845 30.8804L29.6078 31.944L29.4932 32.0377L28.5151 31.5094L28.5049 31.5178L29.1556 32.3138L29.037 32.4108L28.1804 31.3632Z" fill="#7C0606"/>
<path d="M30.4598 31.1512L30.3436 31.2778L29.6828 29.9966L29.7972 29.872L31.1301 30.4211L31.0139 30.5476L29.9013 30.0752L29.8941 30.0829L30.4598 31.1512ZM30.1133 30.747L30.5816 30.2369L30.6887 30.3352L30.2204 30.8453L30.1133 30.747Z" fill="#7C0606"/>
<path d="M31.3981 30.0566L30.2954 29.2723L30.5604 28.8997C30.6217 28.8136 30.6867 28.7533 30.7554 28.719C30.8238 28.6844 30.893 28.6719 30.9628 28.6816C31.0327 28.6913 31.1001 28.7192 31.1651 28.7654C31.2301 28.8116 31.2782 28.8659 31.3096 28.9282C31.341 28.9905 31.3515 29.0593 31.3411 29.1347C31.3304 29.2098 31.2947 29.29 31.2339 29.3755L31.0195 29.677L30.8988 29.5912L31.1102 29.294C31.1521 29.2351 31.1772 29.1816 31.1855 29.1335C31.1941 29.085 31.1883 29.0414 31.1682 29.0028C31.148 28.9635 31.1158 28.9282 31.0716 28.8968C31.0275 28.8654 30.983 28.8462 30.9383 28.8393C30.8935 28.8323 30.8492 28.8405 30.8055 28.864C30.7614 28.8873 30.7182 28.9287 30.6758 28.9883L30.5088 29.223L31.4931 29.9231L31.3981 30.0566ZM31.2719 29.1852L31.9603 29.2662L31.85 29.4212L31.1647 29.336L31.2719 29.1852Z" fill="#7C0606"/>
<path d="M32.1882 28.867L30.9986 28.2221L31.0767 28.078L31.6668 28.3979L31.6744 28.384L31.3739 27.5296L31.476 27.3414L31.7419 28.132L32.6656 27.9863L32.5711 28.1606L31.7939 28.2744L31.8806 28.5138L32.2663 28.7229L32.1882 28.867Z" fill="#7C0606"/>
<path d="M32.8266 27.5921L31.5691 27.0922L31.8708 26.3333L32.0059 26.387L31.7647 26.9937L32.1896 27.1625L32.4151 26.5952L32.5502 26.6489L32.3247 27.2162L32.7521 27.3861L32.9971 26.7696L33.1322 26.8233L32.8266 27.5921Z" fill="#7C0606"/>
<path d="M32.1027 26.0753L31.9622 26.0379L32.223 25.0571L32.3635 25.0944L32.2541 25.5057L33.4214 25.8161L33.3793 25.9744L32.212 25.664L32.1027 26.0753Z" fill="#7C0606"/>
<path d="M32.2959 24.5571L33.6306 24.7804L33.6036 24.9421L32.2689 24.7187L32.2959 24.5571Z" fill="#7C0606"/>
<path d="M32.437 22.9822L33.7876 23.0668L33.7777 23.2251L32.6712 23.8946L32.6703 23.9078L33.7307 23.9742L33.7205 24.1378L32.3699 24.0532L32.3798 23.8949L33.4891 23.2229L33.49 23.2097L32.4269 23.1431L32.437 22.9822Z" fill="#7C0606"/>
<path d="M32.7724 21.6447C32.7291 21.6625 32.6907 21.6846 32.6574 21.7109C32.6235 21.7368 32.5953 21.767 32.5726 21.8014C32.55 21.8353 32.5336 21.8732 32.5234 21.915C32.5133 21.9568 32.51 22.0021 32.5136 22.0509C32.5196 22.1308 32.5456 22.202 32.5918 22.2644C32.6379 22.3268 32.7026 22.3743 32.7859 22.407C32.8692 22.4397 32.9692 22.4517 33.0861 22.443C33.2029 22.4344 33.3001 22.4075 33.3776 22.3624C33.4551 22.3174 33.512 22.2599 33.5483 22.1901C33.5846 22.1202 33.5997 22.0436 33.5935 21.9601C33.5878 21.8828 33.5663 21.8159 33.5289 21.7595C33.4911 21.7027 33.4407 21.6601 33.3777 21.6316C33.3141 21.6028 33.241 21.5914 33.1585 21.5975L33.1653 21.5467L33.1954 21.9526L33.0505 21.9633L33.0123 21.4494L33.1573 21.4386C33.2684 21.4304 33.3668 21.4469 33.4525 21.4882C33.5381 21.5292 33.6066 21.5894 33.658 21.6691C33.709 21.7484 33.7384 21.8416 33.7464 21.9488C33.7553 22.0683 33.7349 22.1753 33.6854 22.27C33.6359 22.3642 33.5611 22.4405 33.4612 22.4987C33.3613 22.5564 33.2401 22.5906 33.0978 22.6012C32.9911 22.6091 32.894 22.602 32.8067 22.5797C32.7189 22.5571 32.6429 22.5217 32.5788 22.4734C32.5147 22.4252 32.4639 22.3662 32.4265 22.2965C32.3891 22.2269 32.3672 22.1488 32.3608 22.0622C32.3555 21.9911 32.3613 21.9239 32.3783 21.8608C32.3948 21.7973 32.4208 21.74 32.4563 21.6887C32.4913 21.6371 32.5347 21.593 32.5863 21.5565C32.6375 21.52 32.6953 21.4932 32.7599 21.4761L32.7724 21.6447Z" fill="#7C0606"/>
<path d="M17.6776 24.0683L17.4378 23.312C16.7246 23.8285 16.036 24.0867 15.372 24.0867C14.7694 24.0867 14.2437 23.9791 13.7949 23.7639C13.3461 23.5426 12.9741 23.2536 12.679 22.897C12.3838 22.5343 12.1625 22.1254 12.0149 21.6704C11.8735 21.2093 11.8028 20.7389 11.8028 20.2593C11.8028 19.7736 11.8858 19.3002 12.0518 18.8391C12.224 18.3718 12.473 17.9568 12.7989 17.594C13.1309 17.2313 13.5336 16.9392 14.007 16.7179C14.4804 16.4904 15.0215 16.3766 15.6302 16.3766C16.4787 16.3766 17.2595 16.5611 17.9727 16.93V18.7007C17.8621 18.7192 17.7637 18.7284 17.6776 18.7284C17.5854 18.7284 17.5085 18.7192 17.447 18.7007L17.1519 17.1606C16.7584 16.9146 16.2143 16.7917 15.5195 16.7917C15.1322 16.7917 14.7817 16.8808 14.4681 17.0591C14.1546 17.2313 13.884 17.468 13.6566 17.7693C13.4291 18.0644 13.2538 18.4148 13.1309 18.8206C13.0079 19.2203 12.9464 19.6476 12.9464 20.1026C12.9464 20.5883 13.0018 21.0371 13.1124 21.4491C13.2292 21.861 13.3922 22.2176 13.6012 22.5189C13.8103 22.8202 14.0623 23.0569 14.3575 23.229C14.6587 23.395 14.9938 23.478 15.3627 23.478C15.9591 23.478 16.5463 23.3151 17.1242 22.9892V21.0248L16.3772 20.9326C16.3649 20.9019 16.3588 20.8527 16.3588 20.785C16.3588 20.7543 16.3588 20.7236 16.3588 20.6928C16.3588 20.6621 16.3649 20.6283 16.3772 20.5914C16.5494 20.6037 16.7369 20.6129 16.9398 20.619C17.1488 20.6252 17.3825 20.6283 17.6407 20.6283C18.0895 20.6283 18.5138 20.619 18.9134 20.6006C18.9319 20.6559 18.9411 20.7113 18.9411 20.7666C18.9411 20.8219 18.9319 20.8773 18.9134 20.9326L18.148 21.0433C18.1357 21.1601 18.1264 21.3076 18.1203 21.486C18.1141 21.6643 18.1111 21.8764 18.1111 22.1223V23.0538L18.0188 24.0683C17.9942 24.0806 17.9696 24.0867 17.9451 24.0867C17.9205 24.0867 17.8928 24.0867 17.8621 24.0867C17.8313 24.0867 17.8006 24.0867 17.7698 24.0867C17.7391 24.0867 17.7083 24.0806 17.6776 24.0683ZM26.5747 22.399V17.096L23.7894 24.1789H23.5496L20.8659 17.3266V22.399C20.8659 22.8847 20.8782 23.2444 20.9028 23.478L21.7605 23.5887C21.7974 23.6994 21.7974 23.81 21.7605 23.9207C21.2317 23.9084 20.8567 23.9023 20.6353 23.9023C20.2664 23.9023 19.8944 23.9115 19.5194 23.9299C19.4948 23.7947 19.4948 23.6809 19.5194 23.5887L20.3586 23.4965V18.0644C20.3586 17.5787 20.3463 17.219 20.3217 16.9853L19.5563 16.8747C19.5194 16.7701 19.5194 16.6656 19.5563 16.5611H21.5852L23.9001 22.6296L26.2703 16.5611C26.4117 16.5672 26.6269 16.5703 26.9159 16.5703C26.9774 16.5703 27.46 16.5611 28.3638 16.5426C28.4007 16.6533 28.4007 16.764 28.3638 16.8747L27.5984 16.9853C27.5738 17.219 27.5615 17.5787 27.5615 18.0644V23.4965L28.3085 23.5887C28.3331 23.6809 28.3331 23.7947 28.3085 23.9299C27.9211 23.9115 27.5 23.9023 27.045 23.9023C26.713 23.9023 26.2888 23.9084 25.7723 23.9207C25.7354 23.767 25.7354 23.6563 25.7723 23.5887L26.5378 23.478C26.5624 23.2444 26.5747 22.8847 26.5747 22.399ZM29.8376 22.8786C30.0036 22.8786 30.142 22.9339 30.2527 23.0446C30.3695 23.1491 30.4279 23.2813 30.4279 23.4411C30.4279 23.601 30.3695 23.7393 30.2527 23.8562C30.142 23.9668 30.0067 24.0222 29.8469 24.0222C29.687 24.0222 29.5487 23.9668 29.4318 23.8562C29.3212 23.7393 29.2658 23.601 29.2658 23.4411C29.2658 23.2813 29.3212 23.1491 29.4318 23.0446C29.5425 22.9339 29.6778 22.8786 29.8376 22.8786Z" fill="#7C0606"/>
</svg>
